<?xml version="1.0" encoding="utf-8"?>
<!-- Generator: Adobe Illustrator 25.2.0, SVG Export Plug-In . SVG Version: 6.00 Build 0)  -->
<svg version="1.1" id="Layer_1" xmlns="http://www.w3.org/2000/svg" xmlns:xlink="http://www.w3.org/1999/xlink" x="0px" y="0px"
	 viewBox="0 0 936 936" style="enable-background:new 0 0 936 936;" xml:space="preserve">
<style type="text/css">
	.st0{fill:#CC3142;}
</style>
<g>
	<path class="st0" d="M384.6,652.7l187.6-267.9l-52.4-36.7L332.2,616c-29.6-5.7-61.1,5.8-79.4,32.1c-24.9,35.6-16.3,84.7,19.3,109.6
		c35.6,24.9,84.7,16.3,109.6-19.3C400,712.1,400.1,678.6,384.6,652.7z"/>
	<path d="M316.3,820.1c-24.9,0-50.1-7.4-72-22.7c-56.9-39.8-70.8-118.5-30.9-175.4c21.8-31.1,55.6-50.3,93.3-53.2l24.5-35l0,0
		l42.4-60.6c0,0,0,0,0,0L458.5,352c0,0,0,0,0,0l42.4-60.6l0,0l84.9-121.2c0,0,0,0,0,0L600,150c12.2-17.5,30.6-29.2,51.6-32.9
		c21-3.7,42.2,1,59.7,13.2c36.1,25.3,44.9,75.3,19.6,111.4L437.7,660.6c10.2,36.5,3.7,74.8-18,105.9
		C395.2,801.4,356,820.1,316.3,820.1z M341.8,553.5l-21.5,30.8c-1.8,2.6-4.7,4.1-7.8,4.3c-33.5,1.3-63.7,17.7-82.8,45
		c-33.5,47.9-21.8,114,26,147.5c47.9,33.5,114,21.8,147.5-26c19.1-27.3,24.2-61.2,13.9-93.2c-1-3-0.5-6.2,1.3-8.8l296.1-422.8
		c19-27.1,12.4-64.6-14.7-83.5c-13.1-9.2-29.1-12.7-44.8-9.9c-15.8,2.8-29.5,11.5-38.7,24.7l-8.4,12l49.1,34.4
		c2.8,1.9,4.3,5,4.3,8.2c0,2-0.6,4-1.8,5.7c-3.2,4.5-9.4,5.6-13.9,2.5l-49.1-34.4l-31,44.2l49.1,34.4c2.8,1.9,4.3,5,4.3,8.2
		c0,2-0.6,4-1.8,5.7c-3.2,4.5-9.4,5.6-13.9,2.5L554,250.5l-31,44.2l49.1,34.4c2.8,1.9,4.3,5,4.3,8.2c0,2-0.6,4-1.8,5.7
		c-3.2,4.5-9.4,5.6-13.9,2.5l-49.1-34.4l-31,44.2l49.1,34.4c2.8,1.9,4.3,5,4.3,8.2c0,2-0.6,4-1.8,5.7c-3.2,4.5-9.4,5.6-13.9,2.5
		l-49.1-34.4l-31,44.2l49.1,34.4c2.8,1.9,4.3,5,4.3,8.2c0,2-0.6,4-1.8,5.7c-3.2,4.5-9.4,5.6-13.9,2.5l-49.1-34.4l-31,44.2l49.1,34.4
		c2.8,1.9,4.3,5,4.3,8.2c0,2-0.6,4-1.8,5.7c-3.2,4.5-9.4,5.6-13.9,2.5l-49.1-34.4l-31,44.2l49.1,34.4c2.8,1.9,4.3,5,4.3,8.2
		c0,2-0.6,4-1.8,5.7c-3.2,4.5-9.4,5.6-13.9,2.5L341.8,553.5z"/>
</g>
</svg>
