<?xml version="1.0" encoding="utf-8"?>
<!-- Svg Vector Icons : http://www.onlinewebfonts.com/icon -->
<!DOCTYPE svg PUBLIC "-//W3C//DTD SVG 1.1//EN" "http://www.w3.org/Graphics/SVG/1.1/DTD/svg11.dtd">
<svg version="1.1" xmlns="http://www.w3.org/2000/svg" xmlns:xlink="http://www.w3.org/1999/xlink" x="0px" y="0px" viewBox="0 0 256 256" enable-background="new 0 0 256 256" xml:space="preserve">
<metadata> Svg Vector Icons : http://www.onlinewebfonts.com/icon </metadata>
<g><g><g><path fill="#000000" d="M114.3,10.9c-9.6,2.6-17.1,10.2-19.6,19.9c-0.7,2.8-0.9,12.5-0.9,68.3v65l-4.1,4c-4.6,4.5-8.9,10.7-10.7,15.5c-2.7,7-3.1,9.8-3.1,17.7c0.1,7,0.2,8.1,1.8,13.1c10.8,32.6,51.2,42.4,75.2,18.4c17.9-17.9,17.7-46.6-0.5-64.5l-4.3-4.1v-65c0-55.8-0.1-65.5-0.9-68.3C143.6,16.1,128.5,7,114.3,10.9z M126,29.7c0.8,0.6,2,1.8,2.6,2.7c1.2,1.5,1.2,2,1.5,70.6c0.3,78-0.2,71.1,5,74.4c6,3.9,10.6,10,12.3,16.9c3.7,14.1-5.3,29-20,32.8c-14.1,3.7-29-5.3-32.8-19.9c-2.9-11.2,2.2-23.3,12.3-29.8c1.6-1.1,3.2-2.7,3.9-4c1.1-2.1,1.1-3.9,1.1-70c0-46.6,0.2-68.3,0.6-69.4c0.8-2.1,2.7-4.1,4.8-5.1C119.6,27.9,124.1,28.3,126,29.7z"/><path fill="#000000" d="M117.9,43.2l-1.4,1.4v67c0,56.2-0.1,67-0.8,67c-0.4,0-2.6,0.9-4.7,2c-4.9,2.4-8.2,5.8-10.6,11c-1.6,3.5-1.8,4.3-1.8,9.2c0,5.1,0.1,5.6,2.1,9.7c2.6,5.2,5.8,8.3,11.1,10.8c3.5,1.6,4.3,1.8,9.2,1.8c4.9,0,5.7-0.2,9.2-1.8c5.3-2.5,8.6-5.7,11.1-10.8c2-4.1,2.1-4.6,2.1-9.7c0-4.9-0.2-5.8-1.8-9.2c-2.4-5.1-5.7-8.5-10.6-11c-2.2-1.1-4.3-2-4.7-2c-0.7,0-0.8-10.7-0.8-67v-67l-1.4-1.4c-0.9-0.9-2-1.4-3.1-1.4C119.9,41.8,118.8,42.3,117.9,43.2z M125.2,187.7c4.9,1.5,9.4,7.7,9.4,12.9c0,7-6.6,13.6-13.6,13.6c-5.2,0-11.5-4.5-12.9-9.4c-1.6-5.3-0.5-9.6,3.6-13.6C115.6,187.3,119.9,186.2,125.2,187.7z"/><path fill="#000000" d="M154.2,43.2c-0.9,0.8-1.4,2-1.4,3.1s0.5,2.3,1.4,3.1c1.4,1.4,1.5,1.4,12.2,1.4c10.7,0,10.8,0,12.2-1.4c0.9-0.9,1.4-2,1.4-3.1s-0.5-2.3-1.4-3.1c-1.4-1.4-1.5-1.4-12.2-1.4C155.7,41.8,155.6,41.8,154.2,43.2z"/><path fill="#000000" d="M154.2,61.3c-0.9,0.9-1.4,2-1.4,3.1s0.5,2.3,1.4,3.1c1.4,1.4,1.5,1.4,12.2,1.4c10.7,0,10.8,0,12.2-1.4c0.9-0.9,1.4-2,1.4-3.1s-0.5-2.3-1.4-3.1c-1.4-1.4-1.5-1.4-12.2-1.4C155.7,59.9,155.6,59.9,154.2,61.3z"/><path fill="#000000" d="M154.2,79.5c-0.9,0.9-1.4,2-1.4,3.1s0.5,2.3,1.4,3.1c1.4,1.4,1.5,1.4,12.2,1.4c10.7,0,10.8,0,12.2-1.4c0.9-0.9,1.4-2,1.4-3.1s-0.5-2.3-1.4-3.1c-1.4-1.4-1.5-1.4-12.2-1.4C155.7,78.1,155.6,78.1,154.2,79.5z"/><path fill="#000000" d="M154.2,97.7c-0.9,0.9-1.4,2-1.4,3.1s0.5,2.3,1.4,3.1c1.4,1.4,1.5,1.4,12.2,1.4c10.7,0,10.8,0,12.2-1.4c0.9-0.8,1.4-2,1.4-3.1s-0.5-2.3-1.4-3.1c-1.4-1.4-1.5-1.4-12.2-1.4C155.7,96.2,155.6,96.2,154.2,97.7z"/><path fill="#000000" d="M154.2,115.8c-0.9,0.8-1.4,2-1.4,3.1s0.5,2.3,1.4,3.1c1.4,1.4,1.5,1.4,12.2,1.4c10.7,0,10.8,0,12.2-1.4c0.9-0.9,1.4-2,1.4-3.1s-0.5-2.3-1.4-3.1c-1.4-1.4-1.5-1.4-12.2-1.4C155.7,114.4,155.6,114.4,154.2,115.8z"/></g></g></g>
</svg>